<svg width="35" height="34" viewBox="0 0 35 34" fill="none" xmlns="http://www.w3.org/2000/svg">
<path d="M33.3435 17C33.3435 25.8271 26.1126 33 17.1717 33C8.23083 33 1 25.8271 1 17C1 8.1729 8.23083 1 17.1717 1C26.1126 1 33.3435 8.1729 33.3435 17Z" stroke="white" stroke-width="2"/>
<path d="M9.6231 0.00386874L7.22464 0C4.53005 0 2.78868 1.79606 2.78868 4.57595V6.68576H0.377135C0.168749 6.68576 0 6.8556 0 7.06509V10.122C0 10.3315 0.168941 10.5011 0.377135 10.5011H2.78868V18.2146C2.78868 18.4241 2.95743 18.5937 3.16582 18.5937H6.3122C6.52059 18.5937 6.68934 18.4239 6.68934 18.2146V10.5011H9.509C9.71739 10.5011 9.88614 10.3315 9.88614 10.122L9.88729 7.06509C9.88729 6.96451 9.84746 6.86818 9.77684 6.79699C9.70623 6.72581 9.61002 6.68576 9.50996 6.68576H6.68934V4.89725C6.68934 4.03761 6.89311 3.60122 8.007 3.60122L9.62272 3.60064C9.83091 3.60064 9.99966 3.4308 9.99966 3.2215V0.383005C9.99966 0.1739 9.8311 0.00425561 9.6231 0.00386874Z" transform="translate(11.9996 7.8291)" fill="white"/>
</svg>
