<svg width="35" height="34" viewBox="0 0 35 34" fill="none" xmlns="http://www.w3.org/2000/svg">
<path d="M33.3435 17C33.3435 25.8271 26.1126 33 17.1717 33C8.23083 33 1 25.8271 1 17C1 8.1729 8.23083 1 17.1717 1C26.1126 1 33.3435 8.1729 33.3435 17Z" transform="translate(0.437866)" stroke="white" stroke-width="2"/>
<path d="M12.3746 0H5.62481C2.51879 0 0 2.46502 0 5.50473V12.1104C0 15.1501 2.51879 17.6151 5.62481 17.6151H12.3746C15.4806 17.6151 17.9994 15.1501 17.9994 12.1104V5.50473C17.9994 2.46502 15.4806 0 12.3746 0ZM16.3119 12.1104C16.3119 14.2352 14.5458 15.9637 12.3746 15.9637H5.62481C3.45363 15.9637 1.68744 14.2352 1.68744 12.1104V5.50473C1.68744 3.3799 3.45363 1.65142 5.62481 1.65142H12.3746C14.5458 1.65142 16.3119 3.3799 16.3119 5.50473V12.1104Z" transform="translate(8.9967 8.80762)" fill="white"/>
<path d="M4.49985 0C2.01481 0 0 1.97179 0 4.40378C0 6.83577 2.01481 8.80757 4.49985 8.80757C6.98489 8.80757 8.99969 6.83577 8.99969 4.40378C8.99969 1.97179 6.98489 0 4.49985 0ZM4.49985 7.15615C2.94965 7.15615 1.68744 5.92089 1.68744 4.40378C1.68744 2.88558 2.94965 1.65142 4.49985 1.65142C6.05005 1.65142 7.31225 2.88558 7.31225 4.40378C7.31225 5.92089 6.05005 7.15615 4.49985 7.15615Z" transform="translate(13.4966 13.2114)" fill="white"/>
<path d="M0.599605 1.17361C0.930757 1.17361 1.19921 0.910887 1.19921 0.586804C1.19921 0.262721 0.930757 0 0.599605 0C0.268452 0 0 0.262721 0 0.586804C0 0.910887 0.268452 1.17361 0.599605 1.17361Z" transform="translate(22.2341 12.2944)" fill="white"/>
</svg>
