<svg width="35" height="34" viewBox="0 0 35 34" fill="none" xmlns="http://www.w3.org/2000/svg">
<path d="M33.3435 17C33.3435 25.8271 26.1126 33 17.1717 33C8.23083 33 1 25.8271 1 17C1 8.1729 8.23083 1 17.1717 1C26.1126 1 33.3435 8.1729 33.3435 17Z" transform="translate(0.656494)" stroke="white" stroke-width="2"/>
<path d="M17.9994 10.1998V16.6365H14.1415V10.6309C14.1415 9.12227 13.5835 8.09267 12.1871 8.09267C11.1211 8.09267 10.4868 8.78654 10.2077 9.45775C10.1059 9.6977 10.0797 10.0317 10.0797 10.3676V16.6365H6.22057C6.22057 16.6365 6.27255 6.46501 6.22057 5.41117H10.0793V7.00232C10.0715 7.01422 10.0613 7.02705 10.054 7.03859H10.0793V7.00232C10.592 6.23854 11.5076 5.14746 13.557 5.14746C16.096 5.14742 17.9994 6.75184 17.9994 10.1998ZM2.18374 0C0.863526 0 0 0.83761 0 1.9391C0 3.01658 0.838543 3.87961 2.13251 3.87961H2.15829C3.50407 3.87961 4.34102 3.01674 4.34102 1.9391C4.31567 0.83761 3.50407 0 2.18374 0ZM0.2292 16.6365H4.08688V5.41117H0.2292V16.6365Z" transform="translate(8.99512 8.80762)" fill="white"/>
</svg>
