<svg width="35" height="34" viewBox="0 0 35 34" fill="none" xmlns="http://www.w3.org/2000/svg">
<path d="M33.3435 17C33.3435 25.8271 26.1126 33 17.1717 33C8.23083 33 1 25.8271 1 17C1 8.1729 8.23083 1 17.1717 1C26.1126 1 33.3435 8.1729 33.3435 17Z" transform="translate(0.218872)" stroke="white" stroke-width="2"/>
<path d="M17.9994 1.73679C17.3369 2.03152 16.6261 2.23139 15.8792 2.32063C16.6418 1.86214 17.2256 1.13491 17.5022 0.271014C16.7869 0.695608 15.9973 1.00392 15.156 1.17105C14.4823 0.449456 13.524 0 12.4611 0C10.4219 0 8.76851 1.66001 8.76851 3.70623C8.76851 3.99644 8.80113 4.27989 8.86413 4.55093C5.79581 4.3962 3.07505 2.92027 1.25408 0.677536C0.935764 1.22411 0.754681 1.86099 0.754681 2.54083C0.754681 3.82707 1.40704 4.96197 2.39683 5.62595C1.79171 5.60564 1.22258 5.43851 0.72433 5.1607V5.207C0.72433 7.00252 1.99755 8.50105 3.68579 8.8421C3.37648 8.92567 3.05031 8.97197 2.71288 8.97197C2.47445 8.97197 2.24387 8.94826 2.01779 8.90308C2.48792 10.3768 3.85114 11.4484 5.46629 11.4778C4.20319 12.4716 2.61053 13.0622 0.880677 13.0622C0.582628 13.0622 0.289049 13.0441 0 13.0113C1.63427 14.065 3.57447 14.6793 5.65976 14.6793C12.4521 14.6793 16.1649 9.0307 16.1649 4.13198L16.1526 3.65205C16.878 3.13255 17.5056 2.47985 17.9994 1.73679Z" transform="translate(7.99817 9.78613)" fill="white"/>
</svg>
